<svg width="256" height="256" viewBox="0 0 256 256" fill="none" xmlns="http://www.w3.org/2000/svg">
<path d="M239.199 97.2919C238.231 94.3058 236.405 91.6706 233.949 89.7147C231.493 87.7587 228.517 86.5684 225.389 86.2919L165.999 81.1719L142.719 25.8119C141.507 22.9071 139.463 20.4258 136.844 18.6805C134.224 16.9352 131.147 16.0039 127.999 16.0039C124.852 16.0039 121.775 16.9352 119.155 18.6805C116.536 20.4258 114.492 22.9071 113.279 25.8119L90.0694 81.1719L30.6094 86.3219C27.4698 86.5857 24.4779 87.7707 22.009 89.7281C19.5401 91.6855 17.7041 94.3283 16.7312 97.325C15.7582 100.322 15.6917 103.539 16.54 106.573C17.3883 109.608 19.1135 112.324 21.4994 114.382L66.6094 153.802L53.0894 212.342C52.3745 215.405 52.5785 218.612 53.6759 221.56C54.7733 224.508 56.7154 227.067 59.2594 228.917C61.8034 230.768 64.8364 231.827 67.9792 231.963C71.122 232.099 74.2351 231.306 76.9294 229.682L127.929 198.682L179.039 229.682C181.734 231.306 184.847 232.099 187.99 231.963C191.133 231.827 194.166 230.768 196.709 228.917C199.253 227.067 201.196 224.508 202.293 221.56C203.39 218.612 203.594 215.405 202.879 212.342L189.369 153.742L234.469 114.382C236.855 112.317 238.577 109.593 239.419 106.552C240.26 103.511 240.184 100.29 239.199 97.2919ZM223.979 102.292L178.879 141.652C176.684 143.561 175.052 146.033 174.156 148.801C173.261 151.569 173.138 154.529 173.799 157.362L187.349 216.002L136.279 185.002C133.788 183.485 130.927 182.682 128.009 182.682C125.092 182.682 122.231 183.485 119.739 185.002L68.7394 216.002L82.1994 157.402C82.8609 154.569 82.7375 151.609 81.8424 148.841C80.9473 146.073 79.3144 143.601 77.1194 141.692L31.9994 102.352C31.9958 102.322 31.9958 102.292 31.9994 102.262L91.4394 97.1219C94.3415 96.8661 97.1186 95.8228 99.4712 94.1046C101.824 92.3864 103.663 90.0585 104.789 87.3719L127.999 32.0819L151.199 87.3719C152.326 90.0585 154.165 92.3864 156.518 94.1046C158.87 95.8228 161.647 96.8661 164.549 97.1219L223.999 102.262C223.999 102.262 223.999 102.322 223.999 102.332L223.979 102.292Z" fill="#89EDED"/>
</svg>
